<?xml version="1.0" encoding="utf-8"?>
<!-- Generator: Adobe Illustrator 26.2.1, SVG Export Plug-In . SVG Version: 6.00 Build 0)  -->
<svg version="1.1"
	 id="svg2" inkscape:export-filename="/home/byron/art/cards/final/PNGs/10_of_clubs.png" inkscape:export-xdpi="215.44792" inkscape:export-ydpi="215.44792" inkscape:version="0.48.0 r9654" sodipodi:docname="10_of_clubs.svg" xmlns:cc="http://creativecommons.org/ns#" xmlns:dc="http://purl.org/dc/elements/1.1/" xmlns:inkscape="http://www.inkscape.org/namespaces/inkscape" xmlns:rdf="http://www.w3.org/1999/02/22-rdf-syntax-ns#" xmlns:sodipodi="http://sodipodi.sourceforge.net/DTD/sodipodi-0.dtd" xmlns:svg="http://www.w3.org/2000/svg"
	 xmlns="http://www.w3.org/2000/svg" xmlns:xlink="http://www.w3.org/1999/xlink" x="0px" y="0px" viewBox="0 0 167.1 242.7"
	 style="enable-background:new 0 0 167.1 242.7;" xml:space="preserve">
<style type="text/css">
	.st0{fill:#FFFFFF;}
	.st1{font-family:'ArialMT';}
	.st2{font-size:32px;}
</style>
<sodipodi:namedview  bordercolor="#666666" borderopacity="1" gridtolerance="10" guidetolerance="10" id="namedview39" inkscape:current-layer="svg2" inkscape:cx="117.62976" inkscape:cy="148.16686" inkscape:pageopacity="0" inkscape:pageshadow="2" inkscape:window-height="977" inkscape:window-maximized="1" inkscape:window-width="1680" inkscape:window-x="0" inkscape:window-y="25" inkscape:zoom="2.4336873" objecttolerance="10" pagecolor="#ffffff" showgrid="false">
	</sodipodi:namedview>
<g id="Layer_x0020_1">
	<path id="path5" class="st0" d="M166.8,235.5c0,3.8-3.1,6.9-6.9,6.9H7.1c-3.8,0-6.9-3.1-6.9-6.9V7.1c0-3.8,3.1-6.9,6.9-6.9H160
		c3.8,0,6.9,3.1,6.9,6.9V235.5z"/>
	<g id="g7">
		<g id="g9">
		</g>
	</g>
	<g id="g15">
	</g>
	<g id="g19">
	</g>
	<g id="g23">
		<g id="g25">
		</g>
	</g>
	<g id="g31">
		<g id="g33">
		</g>
	</g>
</g>
<g id="layer1-1-4" transform="matrix(1.4856506,0,0,1.4856506,-54.024661,10.018072)">
	<path id="cl-9" inkscape:connector-curvature="0" d="M50.3,22.7c0,0,2.4-1.9,2.4-4.5c0-1.5-1.4-4.1-4.5-4.1s-4.5,2.6-4.5,4.1
		c0,2.6,2.4,4.5,2.4,4.5c-2.6-2.1-7.3-0.7-7.3,3.5c0,2.1,1.7,4.3,4.3,4.3c3.2,0,4.5-3.5,4.5-3.5s0.4,3.9-1.9,6h5.2
		c-2.3-2.1-1.9-6-1.9-6s1.4,3.5,4.5,3.5c2.6,0,4.3-2.3,4.3-4.3C57.6,22,52.9,20.6,50.3,22.7z"/>
</g>
<g id="layer1-1-4-1" transform="matrix(-1.4856506,0,0,-1.4856506,221.19916,232.46182)">
	<path id="cl-9-7" inkscape:connector-curvature="0" d="M50.3,22.7c0,0,2.4-1.9,2.4-4.5c0-1.5-1.4-4.1-4.5-4.1s-4.5,2.6-4.5,4.1
		c0,2.6,2.4,4.5,2.4,4.5c-2.6-2.1-7.3-0.7-7.3,3.5c0,2.1,1.7,4.3,4.3,4.3c3.2,0,4.5-3.5,4.5-3.5s0.4,3.9-1.9,6h5.2
		c-2.3-2.1-1.9-6-1.9-6s1.4,3.5,4.5,3.5c2.6,0,4.3-2.3,4.3-4.3C57.6,22,52.9,20.6,50.3,22.7z"/>
</g>
<path id="cl-9-8" inkscape:connector-curvature="0" d="M57.6,25.1c0,0,6-4.8,6-11.4c0-3.9-3.4-10.3-11.4-10.3S40.8,9.8,40.8,13.7
	c0,6.6,6,11.4,6,11.4c-6.6-5.2-18.4-1.6-18.4,8.7c0,5.2,4.2,10.8,10.8,10.8c8,0,11.4-8.7,11.4-8.7s1,9.9-4.9,15.2h13
	c-5.9-5.3-4.9-15.2-4.9-15.2s3.4,8.7,11.4,8.7c6.6,0,10.8-5.7,10.8-10.8C76,23.5,64.2,19.9,57.6,25.1z"/>
<path id="cl-9-8-0" inkscape:connector-curvature="0" d="M57.1,93.2c0,0,6-4.8,6-11.4c0-3.9-3.4-10.3-11.4-10.3s-11.4,6.4-11.4,10.3
	c0,6.6,6,11.4,6,11.4c-6.6-5.2-18.4-1.6-18.4,8.7c0,5.2,4.2,10.8,10.8,10.8c8,0,11.4-8.7,11.4-8.7s1,9.9-4.9,15.2h13
	c-5.9-5.3-4.9-15.2-4.9-15.2s3.4,8.7,11.4,8.7c6.6,0,10.8-5.7,10.8-10.8C75.6,91.6,63.7,88,57.1,93.2z"/>
<path id="cl-9-8-9" inkscape:connector-curvature="0" d="M121.6,24.9c0,0,6-4.8,6-11.4c0-3.9-3.4-10.3-11.4-10.3
	s-11.4,6.4-11.4,10.3c0,6.6,6,11.4,6,11.4c-6.6-5.2-18.4-1.6-18.4,8.7c0,5.2,4.2,10.8,10.8,10.8c8,0,11.4-8.7,11.4-8.7
	s1,9.9-4.9,15.2h13c-5.9-5.3-4.9-15.2-4.9-15.2s3.4,8.7,11.4,8.7c6.6,0,10.8-5.7,10.8-10.8C140,23.3,128.2,19.8,121.6,24.9z"/>
<path id="cl-9-8-0-4" inkscape:connector-curvature="0" d="M121.6,93c0,0,6-4.8,6-11.4c0-3.9-3.4-10.3-11.4-10.3
	s-11.4,6.4-11.4,10.3c0,6.6,6,11.4,6,11.4c-6.6-5.2-18.4-1.6-18.4,8.7c0,5.2,4.2,10.8,10.8,10.8c8,0,11.4-8.7,11.4-8.7
	s1,9.9-4.9,15.2h13c-5.9-5.3-4.9-15.2-4.9-15.2s3.4,8.7,11.4,8.7c6.6,0,10.8-5.7,10.8-10.8C140,91.4,128.2,87.9,121.6,93z"/>
<path id="cl-9-8-8" inkscape:connector-curvature="0" d="M89.6,59.3c0,0,6-4.8,6-11.4c0-3.9-3.4-10.3-11.4-10.3S72.8,44,72.8,47.9
	c0,6.6,6,11.4,6,11.4c-6.6-5.2-18.4-1.6-18.4,8.7c0,5.2,4.2,10.8,10.8,10.8c8,0,11.4-8.7,11.4-8.7s1,9.9-4.9,15.2h13
	c-5.9-5.3-4.9-15.2-4.9-15.2s3.4,8.7,11.4,8.7c6.6,0,10.8-5.7,10.8-10.8C108,57.6,96.2,54.1,89.6,59.3z"/>
<path id="cl-9-8-4" inkscape:connector-curvature="0" d="M110.1,217.8c0,0-6,4.8-6,11.4c0,3.9,3.4,10.3,11.4,10.3
	s11.4-6.4,11.4-10.3c0-6.6-6-11.4-6-11.4c6.6,5.2,18.4,1.6,18.4-8.7c0-5.2-4.2-10.8-10.8-10.8c-8,0-11.4,8.7-11.4,8.7
	s-1-9.9,4.9-15.2h-13c5.9,5.3,4.9,15.2,4.9,15.2s-3.4-8.7-11.4-8.7c-6.6,0-10.8,5.7-10.8,10.8C91.6,219.4,103.4,223,110.1,217.8z"/>
<path id="cl-9-8-0-2" inkscape:connector-curvature="0" d="M110.7,149.7c0,0-6,4.8-6,11.4c0,3.9,3.4,10.3,11.4,10.3
	c8,0,11.4-6.4,11.4-10.3c0-6.6-6-11.4-6-11.4c6.6,5.2,18.4,1.6,18.4-8.7c0-5.2-4.2-10.8-10.8-10.8c-8,0-11.4,8.7-11.4,8.7
	s-1-9.9,4.9-15.2h-13c5.9,5.3,4.9,15.2,4.9,15.2s-3.4-8.7-11.4-8.7c-6.6,0-10.8,5.7-10.8,10.8C92.3,151.3,104.1,154.9,110.7,149.7z"
	/>
<path id="cl-9-8-9-6" inkscape:connector-curvature="0" d="M46.1,218c0,0-6,4.8-6,11.4c0,3.9,3.4,10.3,11.4,10.3s11.4-6.4,11.4-10.3
	c0-6.6-6-11.4-6-11.4c6.6,5.2,18.4,1.6,18.4-8.7c0-5.2-4.2-10.8-10.8-10.8c-8,0-11.4,8.7-11.4,8.7s-1-9.9,4.9-15.2H45
	c5.9,5.3,4.9,15.2,4.9,15.2s-3.4-8.7-11.4-8.7c-6.6,0-10.8,5.7-10.8,10.8C27.6,219.6,39.4,223.1,46.1,218z"/>
<path id="cl-9-8-0-4-9" inkscape:connector-curvature="0" d="M46.3,149.9c0,0-6,4.8-6,11.4c0,3.9,3.4,10.3,11.4,10.3
	s11.4-6.4,11.4-10.3c0-6.6-6-11.4-6-11.4c6.6,5.2,18.4,1.6,18.4-8.7c0-5.2-4.2-10.8-10.8-10.8c-8,0-11.4,8.7-11.4,8.7
	s-1-9.9,4.9-15.2h-13c5.9,5.3,4.9,15.2,4.9,15.2s-3.4-8.7-11.4-8.7c-6.6,0-10.8,5.7-10.8,10.8C27.8,151.5,39.6,155,46.3,149.9z"/>
<text transform="matrix(1 0 0 1 -1.1621 27.1704)" class="st1 st2">1</text>
<text transform="matrix(1 0 0 1 11.0005 27.4991)" class="st1 st2">0</text>
<path id="cl-9-8-8-8" inkscape:connector-curvature="0" d="M78.1,183.9c0,0-6,4.8-6,11.4c0,3.9,3.4,10.3,11.4,10.3
	s11.4-6.4,11.4-10.3c0-6.6-6-11.4-6-11.4c6.6,5.2,18.4,1.6,18.4-8.7c0-5.2-4.2-10.8-10.8-10.8c-8,0-11.4,8.7-11.4,8.7
	s-1-9.9,4.9-15.2H77c5.9,5.3,4.9,15.2,4.9,15.2s-3.4-8.7-11.4-8.7c-6.6,0-10.8,5.7-10.8,10.8C59.6,185.6,71.4,189.1,78.1,183.9z"/>
<text transform="matrix(-1 0 0 -1 168.8086 216.2266)" class="st1 st2">1</text>
<text transform="matrix(-1 0 0 -1 156.6465 215.8984)" class="st1 st2">0</text>
</svg>
