<?xml version="1.0" encoding="utf-8"?>
<!-- Generator: Adobe Illustrator 26.2.1, SVG Export Plug-In . SVG Version: 6.00 Build 0)  -->
<svg version="1.1"
	 id="svg2" inkscape:export-filename="/home/byron/art/cards/final/PNGs/10_of_diamonds.png" inkscape:export-xdpi="215.44792" inkscape:export-ydpi="215.44792" inkscape:version="0.48.0 r9654" sodipodi:docname="10_of_diamonds.svg" xmlns:cc="http://creativecommons.org/ns#" xmlns:dc="http://purl.org/dc/elements/1.1/" xmlns:inkscape="http://www.inkscape.org/namespaces/inkscape" xmlns:rdf="http://www.w3.org/1999/02/22-rdf-syntax-ns#" xmlns:sodipodi="http://sodipodi.sourceforge.net/DTD/sodipodi-0.dtd" xmlns:svg="http://www.w3.org/2000/svg"
	 xmlns="http://www.w3.org/2000/svg" xmlns:xlink="http://www.w3.org/1999/xlink" x="0px" y="0px" viewBox="0 0 167.1 242.7"
	 style="enable-background:new 0 0 167.1 242.7;" xml:space="preserve">
<style type="text/css">
	.st0{fill:#FFFFFF;}
	.st1{fill:#DF0000;}
	.st2{font-family:'ArialMT';}
	.st3{font-size:32px;}
</style>
<sodipodi:namedview  bordercolor="#666666" borderopacity="1" gridtolerance="10" guidetolerance="10" id="namedview39" inkscape:current-layer="svg2" inkscape:cx="72.124594" inkscape:cy="147.27218" inkscape:pageopacity="0" inkscape:pageshadow="2" inkscape:window-height="977" inkscape:window-maximized="1" inkscape:window-width="1680" inkscape:window-x="0" inkscape:window-y="25" inkscape:zoom="1.7208768" objecttolerance="10" pagecolor="#ffffff" showgrid="false">
	</sodipodi:namedview>
<g id="Layer_x0020_1">
	<path id="path5" class="st0" d="M166.8,235.5c0,3.8-3.1,6.9-6.9,6.9H7.1c-3.8,0-6.9-3.1-6.9-6.9V7.1c0-3.8,3.1-6.9,6.9-6.9H160
		c3.8,0,6.9,3.1,6.9,6.9V235.5z"/>
	<g id="g7">
		<g id="g9">
		</g>
	</g>
	<g id="g15">
	</g>
	<g id="g19">
	</g>
	<g id="g23">
		<g id="g25">
		</g>
	</g>
	<g id="g31">
		<g id="g33">
		</g>
	</g>
</g>
<text transform="matrix(1 0 0 1 0.4076 26.4133)" class="st1 st2 st3">1</text>
<g id="layer1-2-6" transform="matrix(1.4769065,0,0,1.4769065,16.968095,44.236162)">
	<path id="dl-6" inkscape:connector-curvature="0" sodipodi:nodetypes="ccccccccc" class="st1" d="M3.2-4.7C1.1-7.6,0-10.5,0-10.5
		s-1.1,2.9-3.2,5.8C-5.4-1.9-8,0-8,0s2.6,1.9,4.8,4.7C-1.1,7.6,0,10.5,0,10.5s1.1-2.9,3.2-5.8C5.4,1.9,8,0,8,0S5.4-1.9,3.2-4.7z"/>
</g>
<g id="layer1-2-6-4" transform="matrix(1.4769065,0,0,1.4769065,150.62089,198.50346)">
	<path id="dl-6-9" inkscape:connector-curvature="0" sodipodi:nodetypes="ccccccccc" class="st1" d="M3.2-4.7C1.1-7.6,0-10.5,0-10.5
		s-1.1,2.9-3.2,5.8C-5.4-1.9-8,0-8,0s2.6,1.9,4.8,4.7C-1.1,7.6,0,10.5,0,10.5s1.1-2.9,3.2-5.8C5.4,1.9,8,0,8,0S5.4-1.9,3.2-4.7z"/>
</g>
<g id="layer1-2-6-8-8" transform="matrix(2.5882908,0,0,2.5882908,54.128726,210.91474)">
	<path id="dl-6-8-8" inkscape:connector-curvature="0" sodipodi:nodetypes="ccccccccc" class="st1" d="M3.2-4.7
		C1.1-7.6,0-10.5,0-10.5s-1.1,2.9-3.2,5.8C-5.4-1.9-8,0-8,0s2.6,1.9,4.8,4.7C-1.1,7.6,0,10.5,0,10.5s1.1-2.9,3.2-5.8
		C5.4,1.9,8,0,8,0S5.4-1.9,3.2-4.7z"/>
</g>
<g id="layer1-2-6-8-2-4" transform="matrix(2.5882908,0,0,2.5882908,54.128726,31.619539)">
	<path id="dl-6-8-6-3" inkscape:connector-curvature="0" sodipodi:nodetypes="ccccccccc" class="st1" d="M3.2-4.7
		C1.1-7.6,0-10.5,0-10.5s-1.1,2.9-3.2,5.8C-5.4-1.9-8,0-8,0s2.6,1.9,4.8,4.7C-1.1,7.6,0,10.5,0,10.5s1.1-2.9,3.2-5.8
		C5.4,1.9,8,0,8,0S5.4-1.9,3.2-4.7z"/>
</g>
<g id="layer1-2-6-8-2-8-1" transform="matrix(2.5882908,0,0,2.5882908,54.128726,151.18274)">
	<path id="dl-6-8-6-8-4" inkscape:connector-curvature="0" sodipodi:nodetypes="ccccccccc" class="st1" d="M3.2-4.7
		C1.1-7.6,0-10.5,0-10.5s-1.1,2.9-3.2,5.8C-5.4-1.9-8,0-8,0s2.6,1.9,4.8,4.7C-1.1,7.6,0,10.5,0,10.5s1.1-2.9,3.2-5.8
		C5.4,1.9,8,0,8,0S5.4-1.9,3.2-4.7z"/>
</g>
<g id="layer1-2-6-8-2-8-1-4" transform="matrix(2.5882908,0,0,2.5882908,54.128726,91.351539)">
	<path id="dl-6-8-6-8-4-9" inkscape:connector-curvature="0" sodipodi:nodetypes="ccccccccc" class="st1" d="M3.2-4.7
		C1.1-7.6,0-10.5,0-10.5s-1.1,2.9-3.2,5.8C-5.4-1.9-8,0-8,0s2.6,1.9,4.8,4.7C-1.1,7.6,0,10.5,0,10.5s1.1-2.9,3.2-5.8
		C5.4,1.9,8,0,8,0S5.4-1.9,3.2-4.7z"/>
</g>
<g id="layer1-2-6-8-8-9" transform="matrix(2.5882908,0,0,2.5882908,112.89593,210.91474)">
	<path id="dl-6-8-8-4" inkscape:connector-curvature="0" sodipodi:nodetypes="ccccccccc" class="st1" d="M3.2-4.7
		C1.1-7.6,0-10.5,0-10.5s-1.1,2.9-3.2,5.8C-5.4-1.9-8,0-8,0s2.6,1.9,4.8,4.7C-1.1,7.6,0,10.5,0,10.5s1.1-2.9,3.2-5.8
		C5.4,1.9,8,0,8,0S5.4-1.9,3.2-4.7z"/>
</g>
<g id="layer1-2-6-8-2-4-9" transform="matrix(2.5882908,0,0,2.5882908,112.89593,31.619552)">
	<path id="dl-6-8-6-3-0" inkscape:connector-curvature="0" sodipodi:nodetypes="ccccccccc" class="st1" d="M3.2-4.7
		C1.1-7.6,0-10.5,0-10.5s-1.1,2.9-3.2,5.8C-5.4-1.9-8,0-8,0s2.6,1.9,4.8,4.7C-1.1,7.6,0,10.5,0,10.5s1.1-2.9,3.2-5.8
		C5.4,1.9,8,0,8,0S5.4-1.9,3.2-4.7z"/>
</g>
<g id="layer1-2-6-8-2-8-1-9" transform="matrix(2.5882908,0,0,2.5882908,112.89593,151.18274)">
	<path id="dl-6-8-6-8-4-1" inkscape:connector-curvature="0" sodipodi:nodetypes="ccccccccc" class="st1" d="M3.2-4.7
		C1.1-7.6,0-10.5,0-10.5s-1.1,2.9-3.2,5.8C-5.4-1.9-8,0-8,0s2.6,1.9,4.8,4.7C-1.1,7.6,0,10.5,0,10.5s1.1-2.9,3.2-5.8
		C5.4,1.9,8,0,8,0S5.4-1.9,3.2-4.7z"/>
</g>
<g id="layer1-2-6-8-2-8-1-4-7" transform="matrix(2.5882908,0,0,2.5882908,112.89593,91.351542)">
	<path id="dl-6-8-6-8-4-9-7" inkscape:connector-curvature="0" sodipodi:nodetypes="ccccccccc" class="st1" d="M3.2-4.7
		C1.1-7.6,0-10.5,0-10.5s-1.1,2.9-3.2,5.8C-5.4-1.9-8,0-8,0s2.6,1.9,4.8,4.7C-1.1,7.6,0,10.5,0,10.5s1.1-2.9,3.2-5.8
		C5.4,1.9,8,0,8,0S5.4-1.9,3.2-4.7z"/>
</g>
<g id="layer1-2-6-8-2-4-8" transform="matrix(2.5882908,0,0,2.5882908,83.213394,61.828949)">
	<path id="dl-6-8-6-3-5" inkscape:connector-curvature="0" sodipodi:nodetypes="ccccccccc" class="st1" d="M3.2-4.7
		C1.1-7.6,0-10.5,0-10.5s-1.1,2.9-3.2,5.8C-5.4-1.9-8,0-8,0s2.6,1.9,4.8,4.7C-1.1,7.6,0,10.5,0,10.5s1.1-2.9,3.2-5.8
		C5.4,1.9,8,0,8,0S5.4-1.9,3.2-4.7z"/>
</g>
<g id="layer1-2-6-8-2-4-8-8" transform="matrix(2.5882908,0,0,2.5882908,83.008034,180.83805)">
	<path id="dl-6-8-6-3-5-8" inkscape:connector-curvature="0" sodipodi:nodetypes="ccccccccc" class="st1" d="M3.2-4.7
		C1.1-7.6,0-10.5,0-10.5s-1.1,2.9-3.2,5.8C-5.4-1.9-8,0-8,0s2.6,1.9,4.8,4.7C-1.1,7.6,0,10.5,0,10.5s1.1-2.9,3.2-5.8
		C5.4,1.9,8,0,8,0S5.4-1.9,3.2-4.7z"/>
</g>
<text transform="matrix(1 0 0 1 13.2164 26.3762)" class="st1 st2 st3">0</text>
<text transform="matrix(-1 0 0 -1 166.4355 215.9844)" class="st1 st2 st3">1</text>
<text transform="matrix(-1 0 0 -1 153.627 216.0215)" class="st1 st2 st3">0</text>
</svg>
