<?xml version="1.0" encoding="utf-8"?>
<!-- Generator: Adobe Illustrator 26.2.1, SVG Export Plug-In . SVG Version: 6.00 Build 0)  -->
<svg version="1.1"
	 id="svg2" inkscape:export-filename="/home/byron/art/cards/final/PNGs/10_of_spades.png" inkscape:export-xdpi="215.44792" inkscape:export-ydpi="215.44792" inkscape:version="0.48.0 r9654" sodipodi:docname="10_of_spades.svg" xmlns:cc="http://creativecommons.org/ns#" xmlns:dc="http://purl.org/dc/elements/1.1/" xmlns:inkscape="http://www.inkscape.org/namespaces/inkscape" xmlns:rdf="http://www.w3.org/1999/02/22-rdf-syntax-ns#" xmlns:sodipodi="http://sodipodi.sourceforge.net/DTD/sodipodi-0.dtd" xmlns:svg="http://www.w3.org/2000/svg"
	 xmlns="http://www.w3.org/2000/svg" xmlns:xlink="http://www.w3.org/1999/xlink" x="0px" y="0px" viewBox="0 0 167.1 242.7"
	 style="enable-background:new 0 0 167.1 242.7;" xml:space="preserve">
<style type="text/css">
	.st0{fill:#FFFFFF;}
	.st1{font-family:'ArialMT';}
	.st2{font-size:32px;}
</style>
<sodipodi:namedview  bordercolor="#666666" borderopacity="1" gridtolerance="10" guidetolerance="10" id="namedview39" inkscape:current-layer="svg2" inkscape:cx="106.02254" inkscape:cy="157.08206" inkscape:pageopacity="0" inkscape:pageshadow="2" inkscape:window-height="977" inkscape:window-maximized="1" inkscape:window-width="1680" inkscape:window-x="0" inkscape:window-y="25" inkscape:zoom="2.4336873" objecttolerance="10" pagecolor="#ffffff" showgrid="false">
	</sodipodi:namedview>
<g id="Layer_x0020_1">
	<path id="path5" class="st0" d="M166.8,235.5c0,3.8-3.1,6.9-6.9,6.9H7.1c-3.8,0-6.9-3.1-6.9-6.9V7.1c0-3.8,3.1-6.9,6.9-6.9H160
		c3.8,0,6.9,3.1,6.9,6.9V235.5z"/>
	<g id="g7">
		<g id="g9">
		</g>
	</g>
	<g id="g15">
	</g>
	<g id="g19">
	</g>
	<g id="g23">
		<g id="g25">
		</g>
	</g>
	<g id="g31">
		<g id="g33">
		</g>
	</g>
</g>
<text transform="matrix(1 0 0 1 4.360962e-02 28.342)" class="st1 st2">1</text>
<g id="layer1-7" transform="matrix(1.5085945,0,0,1.3793253,16.929041,45.065897)">
	<path id="sl" inkscape:connector-curvature="0" sodipodi:nodetypes="cccccccccc" d="M8,3.1C7.7-1,0.2-8.6,0-10.5
		C-0.2-8.6-7.7-1-8,3.1C-8.2,6-6.3,7.2-4.6,7.2c1.8,0,3.4-2.8,3.9-3.3c0.2,0.7-1.6,6.7-2.2,6.7h5.8c-0.6,0-2.4-6-2.2-6.7
		c0.5,0.5,1.8,3.3,3.9,3.3C6.3,7.2,8.2,6,8,3.1z"/>
</g>
<g id="layer1-7-88" transform="matrix(2.6486789,0,0,2.4217176,53.01089,31.765995)">
	<path id="sl-4" inkscape:connector-curvature="0" sodipodi:nodetypes="cccccccccc" d="M8,3.1C7.7-1,0.2-8.6,0-10.5
		C-0.2-8.6-7.7-1-8,3.1C-8.2,6-6.3,7.2-4.6,7.2c1.8,0,3.4-2.8,3.9-3.3c0.2,0.7-1.6,6.7-2.2,6.7h5.8c-0.6,0-2.4-6-2.2-6.7
		c0.5,0.5,1.8,3.3,3.9,3.3C6.3,7.2,8.2,6,8,3.1z"/>
</g>
<g id="layer1-7-3" transform="matrix(-1.5085945,0,0,-1.3793253,150.22511,198.04408)">
	<path id="sl-1" inkscape:connector-curvature="0" sodipodi:nodetypes="cccccccccc" d="M8,3.1C7.7-1,0.2-8.6,0-10.5
		C-0.2-8.6-7.7-1-8,3.1C-8.2,6-6.3,7.2-4.6,7.2c1.8,0,3.4-2.8,3.9-3.3c0.2,0.7-1.6,6.7-2.2,6.7h5.8c-0.6,0-2.4-6-2.2-6.7
		c0.5,0.5,1.8,3.3,3.9,3.3C6.3,7.2,8.2,6,8,3.1z"/>
</g>
<g id="layer1-7-88-8" transform="matrix(2.6486789,0,0,2.4217176,53.339713,94.698498)">
	<path id="sl-4-8" inkscape:connector-curvature="0" sodipodi:nodetypes="cccccccccc" d="M8,3.1C7.7-1,0.2-8.6,0-10.5
		C-0.2-8.6-7.7-1-8,3.1C-8.2,6-6.3,7.2-4.6,7.2c1.8,0,3.4-2.8,3.9-3.3c0.2,0.7-1.6,6.7-2.2,6.7h5.8c-0.6,0-2.4-6-2.2-6.7
		c0.5,0.5,1.8,3.3,3.9,3.3C6.3,7.2,8.2,6,8,3.1z"/>
</g>
<g id="layer1-7-88-4" transform="matrix(-2.6486789,0,0,-2.4217176,53.789261,212.66394)">
	<path id="sl-4-3" inkscape:connector-curvature="0" sodipodi:nodetypes="cccccccccc" d="M8,3.1C7.7-1,0.2-8.6,0-10.5
		C-0.2-8.6-7.7-1-8,3.1C-8.2,6-6.3,7.2-4.6,7.2c1.8,0,3.4-2.8,3.9-3.3c0.2,0.7-1.6,6.7-2.2,6.7h5.8c-0.6,0-2.4-6-2.2-6.7
		c0.5,0.5,1.8,3.3,3.9,3.3C6.3,7.2,8.2,6,8,3.1z"/>
</g>
<g id="layer1-7-88-8-1" transform="matrix(-2.6486789,0,0,-2.4217176,53.460438,151.33144)">
	<path id="sl-4-8-4" inkscape:connector-curvature="0" sodipodi:nodetypes="cccccccccc" d="M8,3.1C7.7-1,0.2-8.6,0-10.5
		C-0.2-8.6-7.7-1-8,3.1C-8.2,6-6.3,7.2-4.6,7.2c1.8,0,3.4-2.8,3.9-3.3c0.2,0.7-1.6,6.7-2.2,6.7h5.8c-0.6,0-2.4-6-2.2-6.7
		c0.5,0.5,1.8,3.3,3.9,3.3C6.3,7.2,8.2,6,8,3.1z"/>
</g>
<g id="layer1-7-88-9" transform="matrix(2.6486789,0,0,2.4217176,114.97822,31.578035)">
	<path id="sl-4-2" inkscape:connector-curvature="0" sodipodi:nodetypes="cccccccccc" d="M8,3.1C7.7-1,0.2-8.6,0-10.5
		C-0.2-8.6-7.7-1-8,3.1C-8.2,6-6.3,7.2-4.6,7.2c1.8,0,3.4-2.8,3.9-3.3c0.2,0.7-1.6,6.7-2.2,6.7h5.8c-0.6,0-2.4-6-2.2-6.7
		c0.5,0.5,1.8,3.3,3.9,3.3C6.3,7.2,8.2,6,8,3.1z"/>
</g>
<g id="layer1-7-88-8-0" transform="matrix(2.6486789,0,0,2.4217176,115.30704,94.510535)">
	<path id="sl-4-8-6" inkscape:connector-curvature="0" sodipodi:nodetypes="cccccccccc" d="M8,3.1C7.7-1,0.2-8.6,0-10.5
		C-0.2-8.6-7.7-1-8,3.1C-8.2,6-6.3,7.2-4.6,7.2c1.8,0,3.4-2.8,3.9-3.3c0.2,0.7-1.6,6.7-2.2,6.7h5.8c-0.6,0-2.4-6-2.2-6.7
		c0.5,0.5,1.8,3.3,3.9,3.3C6.3,7.2,8.2,6,8,3.1z"/>
</g>
<g id="layer1-7-88-4-8" transform="matrix(-2.6486789,0,0,-2.4217176,115.75659,212.47597)">
	<path id="sl-4-3-9" inkscape:connector-curvature="0" sodipodi:nodetypes="cccccccccc" d="M8,3.1C7.7-1,0.2-8.6,0-10.5
		C-0.2-8.6-7.7-1-8,3.1C-8.2,6-6.3,7.2-4.6,7.2c1.8,0,3.4-2.8,3.9-3.3c0.2,0.7-1.6,6.7-2.2,6.7h5.8c-0.6,0-2.4-6-2.2-6.7
		c0.5,0.5,1.8,3.3,3.9,3.3C6.3,7.2,8.2,6,8,3.1z"/>
</g>
<g id="layer1-7-88-8-1-2" transform="matrix(-2.6486789,0,0,-2.4217176,115.42777,151.14347)">
	<path id="sl-4-8-4-6" inkscape:connector-curvature="0" sodipodi:nodetypes="cccccccccc" d="M8,3.1C7.7-1,0.2-8.6,0-10.5
		C-0.2-8.6-7.7-1-8,3.1C-8.2,6-6.3,7.2-4.6,7.2c1.8,0,3.4-2.8,3.9-3.3c0.2,0.7-1.6,6.7-2.2,6.7h5.8c-0.6,0-2.4-6-2.2-6.7
		c0.5,0.5,1.8,3.3,3.9,3.3C6.3,7.2,8.2,6,8,3.1z"/>
</g>
<g id="layer1-7-88-6" transform="matrix(2.6486789,0,0,2.4217176,84.152135,64.171198)">
	<path id="sl-4-4" inkscape:connector-curvature="0" sodipodi:nodetypes="cccccccccc" d="M8,3.1C7.7-1,0.2-8.6,0-10.5
		C-0.2-8.6-7.7-1-8,3.1C-8.2,6-6.3,7.2-4.6,7.2c1.8,0,3.4-2.8,3.9-3.3c0.2,0.7-1.6,6.7-2.2,6.7h5.8c-0.6,0-2.4-6-2.2-6.7
		c0.5,0.5,1.8,3.3,3.9,3.3C6.3,7.2,8.2,6,8,3.1z"/>
</g>
<g id="layer1-7-88-6-6" transform="matrix(-2.6486789,0,0,-2.4217176,84.480868,180.54025)">
	<path id="sl-4-4-8" inkscape:connector-curvature="0" sodipodi:nodetypes="cccccccccc" d="M8,3.1C7.7-1,0.2-8.6,0-10.5
		C-0.2-8.6-7.7-1-8,3.1C-8.2,6-6.3,7.2-4.6,7.2c1.8,0,3.4-2.8,3.9-3.3c0.2,0.7-1.6,6.7-2.2,6.7h5.8c-0.6,0-2.4-6-2.2-6.7
		c0.5,0.5,1.8,3.3,3.9,3.3C6.3,7.2,8.2,6,8,3.1z"/>
</g>
<text transform="matrix(1 0 0 1 12.2062 28.6707)" class="st1 st2">0</text>
<text transform="matrix(-1 0 0 -1 166.8369 214.582)" class="st1 st2">1</text>
<text transform="matrix(-1 0 0 -1 154.6738 214.2539)" class="st1 st2">0</text>
</svg>
