<?xml version="1.0" encoding="utf-8"?>
<!-- Generator: Adobe Illustrator 26.2.1, SVG Export Plug-In . SVG Version: 6.00 Build 0)  -->
<svg version="1.1"
	 id="svg2" inkscape:export-filename="/home/byron/art/cards/final/PNGs/5_of_clubs.png" inkscape:export-xdpi="215.44792" inkscape:export-ydpi="215.44792" inkscape:version="0.48.0 r9654" sodipodi:docname="5_of_clubs.svg" xmlns:cc="http://creativecommons.org/ns#" xmlns:dc="http://purl.org/dc/elements/1.1/" xmlns:inkscape="http://www.inkscape.org/namespaces/inkscape" xmlns:rdf="http://www.w3.org/1999/02/22-rdf-syntax-ns#" xmlns:sodipodi="http://sodipodi.sourceforge.net/DTD/sodipodi-0.dtd" xmlns:svg="http://www.w3.org/2000/svg"
	 xmlns="http://www.w3.org/2000/svg" xmlns:xlink="http://www.w3.org/1999/xlink" x="0px" y="0px" viewBox="0 0 167.1 242.7"
	 style="enable-background:new 0 0 167.1 242.7;" xml:space="preserve">
<style type="text/css">
	.st0{fill:#FFFFFF;}
	.st1{font-family:'ArialMT';}
	.st2{font-size:32px;}
</style>
<sodipodi:namedview  bordercolor="#666666" borderopacity="1" gridtolerance="10" guidetolerance="10" id="namedview39" inkscape:current-layer="svg2" inkscape:cx="117.62976" inkscape:cy="148.16686" inkscape:pageopacity="0" inkscape:pageshadow="2" inkscape:window-height="977" inkscape:window-maximized="1" inkscape:window-width="1680" inkscape:window-x="0" inkscape:window-y="25" inkscape:zoom="2.4336873" objecttolerance="10" pagecolor="#ffffff" showgrid="false">
	</sodipodi:namedview>
<g id="Layer_x0020_1">
	<path id="path5" class="st0" d="M166.8,235.5c0,3.8-3.1,6.9-6.9,6.9H7.1c-3.8,0-6.9-3.1-6.9-6.9V7.1c0-3.8,3.1-6.9,6.9-6.9H160
		c3.8,0,6.9,3.1,6.9,6.9V235.5z"/>
	<g id="g7">
		<g id="g9">
		</g>
	</g>
	<g id="g15">
	</g>
	<g id="g19">
	</g>
	<g id="g23">
		<g id="g25">
		</g>
	</g>
	<g id="g31">
		<g id="g33">
		</g>
	</g>
</g>
<text transform="matrix(1 0 0 1 8.3105 27.5484)" class="st1 st2">5</text>
<g id="layer1-1-4" transform="matrix(1.4856506,0,0,1.4856506,-54.024661,10.018072)">
	<path id="cl-9" inkscape:connector-curvature="0" d="M50.3,22.7c0,0,2.4-1.9,2.4-4.5c0-1.5-1.4-4.1-4.5-4.1s-4.5,2.6-4.5,4.1
		c0,2.6,2.4,4.5,2.4,4.5c-2.6-2.1-7.3-0.7-7.3,3.5c0,2.1,1.7,4.3,4.3,4.3c3.2,0,4.5-3.5,4.5-3.5s0.4,3.9-1.9,6h5.2
		c-2.3-2.1-1.9-6-1.9-6s1.4,3.5,4.5,3.5c2.6,0,4.3-2.3,4.3-4.3C57.6,22,52.9,20.6,50.3,22.7z"/>
</g>
<text transform="matrix(-1 0 0 -1 158.8643 214.4668)" class="st1 st2">5</text>
<g id="layer1-1-4-1" transform="matrix(-1.4856506,0,0,-1.4856506,221.19916,232.46182)">
	<path id="cl-9-7" inkscape:connector-curvature="0" d="M50.3,22.7c0,0,2.4-1.9,2.4-4.5c0-1.5-1.4-4.1-4.5-4.1s-4.5,2.6-4.5,4.1
		c0,2.6,2.4,4.5,2.4,4.5c-2.6-2.1-7.3-0.7-7.3,3.5c0,2.1,1.7,4.3,4.3,4.3c3.2,0,4.5-3.5,4.5-3.5s0.4,3.9-1.9,6h5.2
		c-2.3-2.1-1.9-6-1.9-6s1.4,3.5,4.5,3.5c2.6,0,4.3-2.3,4.3-4.3C57.6,22,52.9,20.6,50.3,22.7z"/>
</g>
<g id="layer1-1-4-8" transform="matrix(2.5125778,0,0,2.5125778,-67.188386,-1.5311156)">
	<path id="cl-9-8" inkscape:connector-curvature="0" d="M50.3,22.7c0,0,2.4-1.9,2.4-4.5c0-1.5-1.4-4.1-4.5-4.1s-4.5,2.6-4.5,4.1
		c0,2.6,2.4,4.5,2.4,4.5c-2.6-2.1-7.3-0.7-7.3,3.5c0,2.1,1.7,4.3,4.3,4.3c3.2,0,4.5-3.5,4.5-3.5s0.4,3.9-1.9,6h5.2
		c-2.3-2.1-1.9-6-1.9-6s1.4,3.5,4.5,3.5c2.6,0,4.3-2.3,4.3-4.3C57.6,22,52.9,20.6,50.3,22.7z"/>
</g>
<g id="layer1-1-4-8-0" transform="matrix(-2.5125778,0,0,-2.5125778,174.72954,245.27515)">
	<path id="cl-9-8-6" inkscape:connector-curvature="0" d="M50.3,22.7c0,0,2.4-1.9,2.4-4.5c0-1.5-1.4-4.1-4.5-4.1s-4.5,2.6-4.5,4.1
		c0,2.6,2.4,4.5,2.4,4.5c-2.6-2.1-7.3-0.7-7.3,3.5c0,2.1,1.7,4.3,4.3,4.3c3.2,0,4.5-3.5,4.5-3.5s0.4,3.9-1.9,6h5.2
		c-2.3-2.1-1.9-6-1.9-6s1.4,3.5,4.5,3.5c2.6,0,4.3-2.3,4.3-4.3C57.6,22,52.9,20.6,50.3,22.7z"/>
</g>
<g id="layer1-1-4-8-2" transform="matrix(2.5125778,0,0,2.5125778,-9.1115857,-1.5311131)">
	<path id="cl-9-8-66" inkscape:connector-curvature="0" d="M50.3,22.7c0,0,2.4-1.9,2.4-4.5c0-1.5-1.4-4.1-4.5-4.1s-4.5,2.6-4.5,4.1
		c0,2.6,2.4,4.5,2.4,4.5c-2.6-2.1-7.3-0.7-7.3,3.5c0,2.1,1.7,4.3,4.3,4.3c3.2,0,4.5-3.5,4.5-3.5s0.4,3.9-1.9,6h5.2
		c-2.3-2.1-1.9-6-1.9-6s1.4,3.5,4.5,3.5c2.6,0,4.3-2.3,4.3-4.3C57.6,22,52.9,20.6,50.3,22.7z"/>
</g>
<g id="layer1-1-4-8-0-4" transform="matrix(-2.5125778,0,0,-2.5125778,232.80634,245.27515)">
	<path id="cl-9-8-6-9" inkscape:connector-curvature="0" d="M50.3,22.7c0,0,2.4-1.9,2.4-4.5c0-1.5-1.4-4.1-4.5-4.1s-4.5,2.6-4.5,4.1
		c0,2.6,2.4,4.5,2.4,4.5c-2.6-2.1-7.3-0.7-7.3,3.5c0,2.1,1.7,4.3,4.3,4.3c3.2,0,4.5-3.5,4.5-3.5s0.4,3.9-1.9,6h5.2
		c-2.3-2.1-1.9-6-1.9-6s1.4,3.5,4.5,3.5c2.6,0,4.3-2.3,4.3-4.3C57.6,22,52.9,20.6,50.3,22.7z"/>
</g>
<g id="layer1-1-4-8-2-6" transform="matrix(2.5125778,0,0,2.5125778,-38.388386,61.769684)">
	<path id="cl-9-8-0" inkscape:connector-curvature="0" d="M50.3,22.7c0,0,2.4-1.9,2.4-4.5c0-1.5-1.4-4.1-4.5-4.1s-4.5,2.6-4.5,4.1
		c0,2.6,2.4,4.5,2.4,4.5c-2.6-2.1-7.3-0.7-7.3,3.5c0,2.1,1.7,4.3,4.3,4.3c3.2,0,4.5-3.5,4.5-3.5s0.4,3.9-1.9,6h5.2
		c-2.3-2.1-1.9-6-1.9-6s1.4,3.5,4.5,3.5c2.6,0,4.3-2.3,4.3-4.3C57.6,22,52.9,20.6,50.3,22.7z"/>
</g>
</svg>
