<?xml version="1.0" encoding="utf-8"?>
<!-- Generator: Adobe Illustrator 26.2.1, SVG Export Plug-In . SVG Version: 6.00 Build 0)  -->
<svg version="1.1"
	 id="svg2" inkscape:export-filename="/home/byron/art/cards/final/PNGs/6_of_hearts.png" inkscape:export-xdpi="215.44792" inkscape:export-ydpi="215.44792" inkscape:version="0.48.0 r9654" sodipodi:docname="6_of_hearts.svg" xmlns:cc="http://creativecommons.org/ns#" xmlns:dc="http://purl.org/dc/elements/1.1/" xmlns:inkscape="http://www.inkscape.org/namespaces/inkscape" xmlns:rdf="http://www.w3.org/1999/02/22-rdf-syntax-ns#" xmlns:sodipodi="http://sodipodi.sourceforge.net/DTD/sodipodi-0.dtd" xmlns:svg="http://www.w3.org/2000/svg"
	 xmlns="http://www.w3.org/2000/svg" xmlns:xlink="http://www.w3.org/1999/xlink" x="0px" y="0px" viewBox="0 0 167.1 242.7"
	 style="enable-background:new 0 0 167.1 242.7;" xml:space="preserve">
<style type="text/css">
	.st0{fill:#FFFFFF;}
	.st1{fill:#DF0000;}
	.st2{font-family:'ArialMT';}
	.st3{font-size:32px;}
</style>
<sodipodi:namedview  bordercolor="#666666" borderopacity="1" gridtolerance="10" guidetolerance="10" id="namedview39" inkscape:current-layer="svg2" inkscape:cx="-28.405554" inkscape:cy="147.27218" inkscape:pageopacity="0" inkscape:pageshadow="2" inkscape:window-height="977" inkscape:window-maximized="1" inkscape:window-width="1680" inkscape:window-x="0" inkscape:window-y="25" inkscape:zoom="1.7208768" objecttolerance="10" pagecolor="#ffffff" showgrid="false">
	</sodipodi:namedview>
<g id="Layer_x0020_1">
	<path id="path5" class="st0" d="M166.8,235.5c0,3.8-3.1,6.9-6.9,6.9H7.1c-3.8,0-6.9-3.1-6.9-6.9V7.1c0-3.8,3.1-6.9,6.9-6.9H160
		c3.8,0,6.9,3.1,6.9,6.9V235.5z"/>
	<g id="g7">
		<g id="g9">
		</g>
	</g>
	<g id="g15">
	</g>
	<g id="g19">
	</g>
	<g id="g23">
		<g id="g25">
		</g>
	</g>
	<g id="g31">
		<g id="g33">
		</g>
	</g>
</g>
<text transform="matrix(1 0 0 1 8.7754 28.0133)" class="st1 st2 st3">6</text>
<g id="layer1-9-6" transform="matrix(1.6743072,0,0,1.5669921,17.177511,46.385321)">
	<path id="hl-8" inkscape:connector-curvature="0" sodipodi:nodetypes="scsscss" class="st1" d="M3.7-9C0.4-9,0-5.5,0-5.5
		S-0.4-9-3.7-9C-5.9-9-8-7.4-8-4.5C-8-0.6-1.4,3.3,0,9C1.4,3.3,8-0.6,8-4.5C8-7.4,5.9-9,3.7-9z"/>
</g>
<text transform="matrix(-1 0 0 -1 158.8174 213.5156)" class="st1 st2 st3">6</text>
<g id="layer1-9-6-5" transform="matrix(-1.6743072,0,0,-1.5669921,150.15601,195.14313)">
	<path id="hl-8-1" inkscape:connector-curvature="0" sodipodi:nodetypes="scsscss" class="st1" d="M3.7-9C0.4-9,0-5.5,0-5.5
		S-0.4-9-3.7-9C-5.9-9-8-7.4-8-4.5C-8-0.6-1.4,3.3,0,9C1.4,3.3,8-0.6,8-4.5C8-7.4,5.9-9,3.7-9z"/>
</g>
<g id="layer1-9-6-8" transform="matrix(2.7790082,0,0,2.600887,57.712268,47.603768)">
	<path id="hl-8-8" inkscape:connector-curvature="0" sodipodi:nodetypes="scsscss" class="st1" d="M3.7-9C0.4-9,0-5.5,0-5.5
		S-0.4-9-3.7-9C-5.9-9-8-7.4-8-4.5C-8-0.6-1.4,3.3,0,9C1.4,3.3,8-0.6,8-4.5C8-7.4,5.9-9,3.7-9z"/>
</g>
<g id="layer1-9-6-8-9" transform="matrix(-2.7790082,0,0,-2.600887,57.712268,192.00617)">
	<path id="hl-8-8-5" inkscape:connector-curvature="0" sodipodi:nodetypes="scsscss" class="st1" d="M3.7-9C0.4-9,0-5.5,0-5.5
		S-0.4-9-3.7-9C-5.9-9-8-7.4-8-4.5C-8-0.6-1.4,3.3,0,9C1.4,3.3,8-0.6,8-4.5C8-7.4,5.9-9,3.7-9z"/>
</g>
<g id="layer1-9-6-8-8" transform="matrix(2.7790082,0,0,2.600887,57.712268,118.90457)">
	<path id="hl-8-8-8" inkscape:connector-curvature="0" sodipodi:nodetypes="scsscss" class="st1" d="M3.7-9C0.4-9,0-5.5,0-5.5
		S-0.4-9-3.7-9C-5.9-9-8-7.4-8-4.5C-8-0.6-1.4,3.3,0,9C1.4,3.3,8-0.6,8-4.5C8-7.4,5.9-9,3.7-9z"/>
</g>
<g id="layer1-9-6-8-88" transform="matrix(2.7790082,0,0,2.600887,109.0504,47.272778)">
	<path id="hl-8-8-4" inkscape:connector-curvature="0" sodipodi:nodetypes="scsscss" class="st1" d="M3.7-9C0.4-9,0-5.5,0-5.5
		S-0.4-9-3.7-9C-5.9-9-8-7.4-8-4.5C-8-0.6-1.4,3.3,0,9C1.4,3.3,8-0.6,8-4.5C8-7.4,5.9-9,3.7-9z"/>
</g>
<g id="layer1-9-6-8-9-3" transform="matrix(-2.7790082,0,0,-2.600887,109.0504,191.67518)">
	<path id="hl-8-8-5-1" inkscape:connector-curvature="0" sodipodi:nodetypes="scsscss" class="st1" d="M3.7-9C0.4-9,0-5.5,0-5.5
		S-0.4-9-3.7-9C-5.9-9-8-7.4-8-4.5C-8-0.6-1.4,3.3,0,9C1.4,3.3,8-0.6,8-4.5C8-7.4,5.9-9,3.7-9z"/>
</g>
<g id="layer1-9-6-8-8-4" transform="matrix(2.7790082,0,0,2.600887,109.0504,118.57358)">
	<path id="hl-8-8-8-9" inkscape:connector-curvature="0" sodipodi:nodetypes="scsscss" class="st1" d="M3.7-9C0.4-9,0-5.5,0-5.5
		S-0.4-9-3.7-9C-5.9-9-8-7.4-8-4.5C-8-0.6-1.4,3.3,0,9C1.4,3.3,8-0.6,8-4.5C8-7.4,5.9-9,3.7-9z"/>
</g>
</svg>
