<?xml version="1.0" encoding="utf-8"?>
<!-- Generator: Adobe Illustrator 26.2.1, SVG Export Plug-In . SVG Version: 6.00 Build 0)  -->
<svg version="1.1"
	 id="svg2" inkscape:export-filename="/home/byron/art/cards/final/PNGs/A_of_clubs.png" inkscape:export-xdpi="215.44792" inkscape:export-ydpi="215.44792" inkscape:version="0.48.0 r9654" sodipodi:docname="A_of_clubs.svg" xmlns:cc="http://creativecommons.org/ns#" xmlns:dc="http://purl.org/dc/elements/1.1/" xmlns:inkscape="http://www.inkscape.org/namespaces/inkscape" xmlns:rdf="http://www.w3.org/1999/02/22-rdf-syntax-ns#" xmlns:sodipodi="http://sodipodi.sourceforge.net/DTD/sodipodi-0.dtd" xmlns:svg="http://www.w3.org/2000/svg"
	 xmlns="http://www.w3.org/2000/svg" xmlns:xlink="http://www.w3.org/1999/xlink" x="0px" y="0px" viewBox="0 0 167.1 242.7"
	 style="enable-background:new 0 0 167.1 242.7;" xml:space="preserve">
<style type="text/css">
	.st0{fill:#FFFFFF;}
	.st1{font-family:'ArialMT';}
	.st2{font-size:32px;}
	.st3{fill:url(#cl_00000115512508468140248880000001185809942147146427_);}
	.st4{fill:url(#path3762_00000183229534272224678870000005548005785001781901_);}
	.st5{fill:url(#path3762-6_00000080915838277602300120000013901798245803169449_);}
	.st6{fill:url(#path3762-7_00000081640399197514639420000000741952860051843469_);}
	.st7{fill:#FFFEFF;}
</style>
<sodipodi:namedview  bordercolor="#666666" borderopacity="1" gridtolerance="10" guidetolerance="10" id="namedview39" inkscape:current-layer="svg2" inkscape:cx="188.71531" inkscape:cy="148.16686" inkscape:pageopacity="0" inkscape:pageshadow="2" inkscape:window-height="977" inkscape:window-maximized="1" inkscape:window-width="1680" inkscape:window-x="0" inkscape:window-y="25" inkscape:zoom="2.4336873" objecttolerance="10" pagecolor="#ffffff" showgrid="false">
	</sodipodi:namedview>
<g id="Layer_x0020_1">
	<path id="path5" class="st0" d="M166.8,235.5c0,3.8-3.1,6.9-6.9,6.9H7.1c-3.8,0-6.9-3.1-6.9-6.9V7.1c0-3.8,3.1-6.9,6.9-6.9H160
		c3.8,0,6.9,3.1,6.9,6.9V235.5z"/>
	<g id="g7">
		<g id="g9">
		</g>
	</g>
	<g id="g15">
	</g>
	<g id="g19">
	</g>
	<g id="g23">
		<g id="g25">
		</g>
	</g>
	<g id="g31">
		<g id="g33">
		</g>
	</g>
</g>
<text transform="matrix(1 0 0 1 6.7105 27.5484)" class="st1 st2">A</text>
<g id="g3804" transform="matrix(0.20614599,0,0,0.20614599,8.8705463,16.512759)">
	<g id="layer1-1" transform="matrix(28.969925,0,0,28.969925,-1031.5368,-187.37665)">
		
			<radialGradient id="cl_00000154428142903468195210000011387128457788426918_" cx="-34.6685" cy="109.5031" r="9.5" gradientTransform="matrix(-9.3195 0.1092 0.1603 13.6816 -292.4146 -1476.2592)" gradientUnits="userSpaceOnUse">
			<stop  offset="0" style="stop-color:#000000"/>
			<stop  offset="1" style="stop-color:#000000;stop-opacity:0.6565"/>
		</radialGradient>
		<path id="cl" inkscape:connector-curvature="0" style="fill:url(#cl_00000154428142903468195210000011387128457788426918_);" d="
			M50.3,22.7c0,0,2.4-1.9,2.4-4.5c0-1.5-1.4-4.1-4.5-4.1s-4.5,2.6-4.5,4.1c0,2.6,2.4,4.5,2.4,4.5c-2.6-2.1-7.3-0.7-7.3,3.5
			c0,2.1,1.7,4.3,4.3,4.3c3.2,0,4.5-3.5,4.5-3.5s0.4,3.9-1.9,6h5.2c-2.3-2.1-1.9-6-1.9-6s1.4,3.5,4.5,3.5c2.6,0,4.3-2.3,4.3-4.3
			C57.6,22,52.9,20.6,50.3,22.7z"/>
	</g>
	
		<radialGradient id="path3762_00000151524048006729798010000015313378940607775653_" cx="1683.4503" cy="-13351.9414" r="81.9028" gradientTransform="matrix(0.2636 -0.1677 -9.027245e-02 -0.1681 -1502.4174 -1469.6731)" gradientUnits="userSpaceOnUse">
		<stop  offset="0" style="stop-color:#FFFFFF;stop-opacity:0.5344"/>
		<stop  offset="1" style="stop-color:#000000;stop-opacity:0"/>
	</radialGradient>
	
		<path id="path3762" inkscape:connector-curvature="0" sodipodi:nodetypes="cscsc" style="fill:url(#path3762_00000151524048006729798010000015313378940607775653_);" d="
		M92.8,618.1c0,0-8.9-114.6,25.4-148.3c38.6-37.9,155.3-13.8,155.3-13.8s-79.3,30-110.9,58.6C132.3,542,92.8,618.1,92.8,618.1z"/>
	
		<radialGradient id="path3762-6_00000176013721653014839890000009371790783254679200_" cx="1683.4503" cy="-13351.9414" r="81.9028" gradientTransform="matrix(0.2636 -0.1677 -9.027245e-02 -0.1681 -1347.8159 -1690.5962)" gradientUnits="userSpaceOnUse">
		<stop  offset="0" style="stop-color:#FFFFFF;stop-opacity:0.5191"/>
		<stop  offset="1" style="stop-color:#000000;stop-opacity:0"/>
	</radialGradient>
	
		<path id="path3762-6" inkscape:connector-curvature="0" sodipodi:nodetypes="cscsc" style="fill:url(#path3762-6_00000176013721653014839890000009371790783254679200_);" d="
		M247.4,397.2c0,0-8.9-114.6,25.4-148.3C311.3,211,428,235.1,428,235.1s-79.3,30-110.9,58.6C286.9,321.1,247.4,397.2,247.4,397.2z"
		/>
	
		<radialGradient id="path3762-7_00000072245478043583330770000009127685960295602590_" cx="4504.0474" cy="-7232.811" r="81.9028" gradientTransform="matrix(0.3884 -2.295671e-02 2.428096e-02 -0.2477 -1050.924 -1252.8041)" gradientUnits="userSpaceOnUse">
		<stop  offset="0" style="stop-color:#FFFFFF;stop-opacity:0.7023"/>
		<stop  offset="1" style="stop-color:#000000;stop-opacity:0"/>
	</radialGradient>
	
		<path id="path3762-7" inkscape:connector-curvature="0" sodipodi:nodetypes="cscsc" style="fill:url(#path3762-7_00000072245478043583330770000009127685960295602590_);" d="
		M354.6,603.9c0,0,70.7-135.5,129.5-152c66.1-18.5,169.5,82.8,169.5,82.8s-102.6-16.3-155.1-3.9
		C448.4,542.8,354.6,603.9,354.6,603.9z"/>
	<path id="rect3015" inkscape:connector-curvature="0" class="st7" d="M28.4,122v734.3h667.2V122C695.5,122,28.4,122,28.4,122z
		 M362.6,219.7c91.7,0,131.4,74.2,131.4,118.8c0,76.3-68.8,131.3-68.8,131.3c76.4-59.5,212.7-18.9,212.7,100.1
		c0,59.5-48.6,125.1-125.1,125.1c-91.7,0-131.3-100.1-131.3-100.1S369.8,709,437.7,770.1H287.6c67.9-61.1,56.3-175.2,56.3-175.2
		S304.2,695,212.5,695c-76.4,0-125.1-65.5-125.1-125.1c0-119,136.2-159.6,212.7-100.1c0,0-68.8-55-68.8-131.3
		C231.3,293.9,270.9,219.7,362.6,219.7z"/>
</g>
<g id="layer1-1-4" transform="matrix(1.4856506,0,0,1.4856506,-54.024661,10.018072)">
	<path id="cl-9" inkscape:connector-curvature="0" d="M50.3,22.7c0,0,2.4-1.9,2.4-4.5c0-1.5-1.4-4.1-4.5-4.1s-4.5,2.6-4.5,4.1
		c0,2.6,2.4,4.5,2.4,4.5c-2.6-2.1-7.3-0.7-7.3,3.5c0,2.1,1.7,4.3,4.3,4.3c3.2,0,4.5-3.5,4.5-3.5s0.4,3.9-1.9,6h5.2
		c-2.3-2.1-1.9-6-1.9-6s1.4,3.5,4.5,3.5c2.6,0,4.3-2.3,4.3-4.3C57.6,22,52.9,20.6,50.3,22.7z"/>
</g>
<text transform="matrix(-1 0 0 -1 160.4639 214.4668)" class="st1 st2">A</text>
<g id="layer1-1-4-1" transform="matrix(-1.4856506,0,0,-1.4856506,221.19916,232.46182)">
	<path id="cl-9-7" inkscape:connector-curvature="0" d="M50.3,22.7c0,0,2.4-1.9,2.4-4.5c0-1.5-1.4-4.1-4.5-4.1s-4.5,2.6-4.5,4.1
		c0,2.6,2.4,4.5,2.4,4.5c-2.6-2.1-7.3-0.7-7.3,3.5c0,2.1,1.7,4.3,4.3,4.3c3.2,0,4.5-3.5,4.5-3.5s0.4,3.9-1.9,6h5.2
		c-2.3-2.1-1.9-6-1.9-6s1.4,3.5,4.5,3.5c2.6,0,4.3-2.3,4.3-4.3C57.6,22,52.9,20.6,50.3,22.7z"/>
</g>
</svg>
