<?xml version="1.0" encoding="utf-8"?>
<!-- Generator: Adobe Illustrator 26.2.1, SVG Export Plug-In . SVG Version: 6.00 Build 0)  -->
<svg version="1.1"
	 id="svg2" inkscape:export-filename="/home/byron/art/cards/final/PNGs/ace_of_diamonds.png" inkscape:export-xdpi="215.44792" inkscape:export-ydpi="215.44792" inkscape:version="0.48.0 r9654" sodipodi:docname="ace_of_diamonds.svg" xmlns:cc="http://creativecommons.org/ns#" xmlns:dc="http://purl.org/dc/elements/1.1/" xmlns:inkscape="http://www.inkscape.org/namespaces/inkscape" xmlns:rdf="http://www.w3.org/1999/02/22-rdf-syntax-ns#" xmlns:sodipodi="http://sodipodi.sourceforge.net/DTD/sodipodi-0.dtd" xmlns:svg="http://www.w3.org/2000/svg"
	 xmlns="http://www.w3.org/2000/svg" xmlns:xlink="http://www.w3.org/1999/xlink" x="0px" y="0px" viewBox="0 0 167.1 242.7"
	 style="enable-background:new 0 0 167.1 242.7;" xml:space="preserve">
<style type="text/css">
	.st0{fill:#FFFFFF;}
	.st1{fill:#DF0000;}
	.st2{font-family:'ArialMT';}
	.st3{font-size:32px;}
	.st4{fill:url(#dl_00000116229699272116295470000016935356236577744534_);}
	.st5{fill:url(#path3762-6_00000034074728742699175620000011164095988677992613_);}
</style>
<sodipodi:namedview  bordercolor="#666666" borderopacity="1" gridtolerance="10" guidetolerance="10" id="namedview39" inkscape:current-layer="svg2" inkscape:cx="72.124594" inkscape:cy="147.27218" inkscape:pageopacity="0" inkscape:pageshadow="2" inkscape:window-height="977" inkscape:window-maximized="1" inkscape:window-width="1680" inkscape:window-x="0" inkscape:window-y="25" inkscape:zoom="1.7208768" objecttolerance="10" pagecolor="#ffffff" showgrid="false">
	</sodipodi:namedview>
<g id="Layer_x0020_1">
	<path id="path5" class="st0" d="M166.8,235.5c0,3.8-3.1,6.9-6.9,6.9H7.1c-3.8,0-6.9-3.1-6.9-6.9V7.1c0-3.8,3.1-6.9,6.9-6.9H160
		c3.8,0,6.9,3.1,6.9,6.9V235.5z"/>
	<g id="g7">
		<g id="g9">
		</g>
	</g>
	<g id="g15">
	</g>
	<g id="g19">
	</g>
	<g id="g23">
		<g id="g25">
		</g>
	</g>
	<g id="g31">
		<g id="g33">
		</g>
	</g>
</g>
<text transform="matrix(1 0 0 1 6.2457 28.0133)" class="st1 st2 st3">A</text>
<text transform="matrix(-1 0 0 -1 161.0879 213.5156)" class="st1 st2 st3">A</text>
<g id="g3011" transform="matrix(0.17001436,0,0,0.17001436,19.517107,29.794341)">
	<g id="layer1-2" transform="matrix(35.005102,0,0,35.005102,369.18369,512.27289)">
		
			<radialGradient id="dl_00000181788951437412630080000004541815602465174427_" cx="-93.9501" cy="91.2156" r="8" gradientTransform="matrix(-6.6799 3.281544e-02 5.409634e-02 11.0119 -632.5128 -1005.6166)" gradientUnits="userSpaceOnUse">
			<stop  offset="0" style="stop-color:#DF0000"/>
			<stop  offset="1" style="stop-color:#DF0000;stop-opacity:0.6412"/>
		</radialGradient>
		
			<path id="dl" inkscape:connector-curvature="0" sodipodi:nodetypes="ccccccccc" style="fill:url(#dl_00000181788951437412630080000004541815602465174427_);" d="
			M3.2-4.7C1.1-7.6,0-10.5,0-10.5s-1.1,2.9-3.2,5.8C-5.4-1.9-8,0-8,0s2.6,1.9,4.8,4.7C-1.1,7.6,0,10.5,0,10.5s1.1-2.9,3.2-5.8
			C5.4,1.9,8,0,8,0S5.4-1.9,3.2-4.7z"/>
	</g>
	
		<radialGradient id="path3762-6_00000018221938799680408800000018057375296998293679_" cx="-3074.1008" cy="16640.7227" r="81.9028" gradientTransform="matrix(-0.2591 0.2203 0.1265 0.1584 -2607.655 -1528.8639)" gradientUnits="userSpaceOnUse">
		<stop  offset="0" style="stop-color:#FFFFFF;stop-opacity:0.4351"/>
		<stop  offset="1" style="stop-color:#000000;stop-opacity:0"/>
	</radialGradient>
	
		<path id="path3762-6" inkscape:connector-curvature="0" sodipodi:nodetypes="cscsc" style="fill:url(#path3762-6_00000018221938799680408800000018057375296998293679_);" d="
		M340.2,259.6c0,0,35.1,142.2-3.3,191.8c-43.2,55.8-202.3,50.5-202.3,50.5s98.7-54.6,134.6-97.4
		C303.4,363.7,340.2,259.6,340.2,259.6z"/>
</g>
<g id="layer1-2-6" transform="matrix(1.4769065,0,0,1.4769065,16.968095,44.236162)">
	<path id="dl-6" inkscape:connector-curvature="0" sodipodi:nodetypes="ccccccccc" class="st1" d="M3.2-4.7C1.1-7.6,0-10.5,0-10.5
		s-1.1,2.9-3.2,5.8C-5.4-1.9-8,0-8,0s2.6,1.9,4.8,4.7C-1.1,7.6,0,10.5,0,10.5s1.1-2.9,3.2-5.8C5.4,1.9,8,0,8,0S5.4-1.9,3.2-4.7z"/>
</g>
<g id="layer1-2-6-4" transform="matrix(1.4769065,0,0,1.4769065,150.62089,198.50346)">
	<path id="dl-6-9" inkscape:connector-curvature="0" sodipodi:nodetypes="ccccccccc" class="st1" d="M3.2-4.7C1.1-7.6,0-10.5,0-10.5
		s-1.1,2.9-3.2,5.8C-5.4-1.9-8,0-8,0s2.6,1.9,4.8,4.7C-1.1,7.6,0,10.5,0,10.5s1.1-2.9,3.2-5.8C5.4,1.9,8,0,8,0S5.4-1.9,3.2-4.7z"/>
</g>
</svg>
