<?xml version="1.0" encoding="utf-8"?>
<!-- Generator: Adobe Illustrator 26.2.1, SVG Export Plug-In . SVG Version: 6.00 Build 0)  -->
<svg version="1.1"
	 id="svg2" inkscape:export-filename="/home/byron/art/cards/final/PNGs/A_of_hearts.png" inkscape:export-xdpi="215.44792" inkscape:export-ydpi="215.44792" inkscape:version="0.48.0 r9654" sodipodi:docname="A_of_hearts.svg" xmlns:cc="http://creativecommons.org/ns#" xmlns:dc="http://purl.org/dc/elements/1.1/" xmlns:inkscape="http://www.inkscape.org/namespaces/inkscape" xmlns:rdf="http://www.w3.org/1999/02/22-rdf-syntax-ns#" xmlns:sodipodi="http://sodipodi.sourceforge.net/DTD/sodipodi-0.dtd" xmlns:svg="http://www.w3.org/2000/svg"
	 xmlns="http://www.w3.org/2000/svg" xmlns:xlink="http://www.w3.org/1999/xlink" x="0px" y="0px" viewBox="0 0 167.1 242.7"
	 style="enable-background:new 0 0 167.1 242.7;" xml:space="preserve">
<style type="text/css">
	.st0{fill:#FFFFFF;}
	.st1{fill:#DF0000;}
	.st2{font-family:'ArialMT';}
	.st3{font-size:32px;}
	.st4{fill:url(#hl_00000055672420426795405970000004182028524838880441_);}
	.st5{fill:url(#path3762-6-4_00000043440988912682182440000009883159457339754151_);}
	.st6{fill:url(#path3762-6-2-3_00000060714904339093069640000014717654778141496727_);}
</style>
<sodipodi:namedview  bordercolor="#666666" borderopacity="1" gridtolerance="10" guidetolerance="10" id="namedview39" inkscape:current-layer="svg2" inkscape:cx="72.124594" inkscape:cy="147.27218" inkscape:pageopacity="0" inkscape:pageshadow="2" inkscape:window-height="977" inkscape:window-maximized="1" inkscape:window-width="1680" inkscape:window-x="0" inkscape:window-y="25" inkscape:zoom="1.7208768" objecttolerance="10" pagecolor="#ffffff" showgrid="false">
	</sodipodi:namedview>
<g id="Layer_x0020_1">
	<path id="path5" class="st0" d="M166.8,235.5c0,3.8-3.1,6.9-6.9,6.9H7.1c-3.8,0-6.9-3.1-6.9-6.9V7.1c0-3.8,3.1-6.9,6.9-6.9H160
		c3.8,0,6.9,3.1,6.9,6.9V235.5z"/>
	<g id="g7">
		<g id="g9">
		</g>
	</g>
	<g id="g15">
	</g>
	<g id="g19">
	</g>
	<g id="g23">
		<g id="g25">
		</g>
	</g>
	<g id="g31">
		<g id="g33">
		</g>
	</g>
</g>
<text transform="matrix(1 0 0 1 6.2457 28.0133)" class="st1 st2 st3">A</text>
<g id="g3036" transform="matrix(0.19686979,0,0,0.19686979,11.54991,16.869674)">
	<g id="layer1-9" transform="matrix(34.670635,0,0,32.448413,363.65075,535.3979)">
		
			<radialGradient id="hl_00000183228667919944639520000015282578536272363665_" cx="-81.9192" cy="84.3291" r="8" gradientTransform="matrix(-6.8256 0 0 10.9887 -559.3538 -931.816)" gradientUnits="userSpaceOnUse">
			<stop  offset="0" style="stop-color:#DF0000"/>
			<stop  offset="1" style="stop-color:#DF0000;stop-opacity:0.6718"/>
		</radialGradient>
		
			<path id="hl" inkscape:connector-curvature="0" sodipodi:nodetypes="scsscss" style="fill:url(#hl_00000183228667919944639520000015282578536272363665_);" d="
			M3.7-9C0.4-9,0-5.5,0-5.5S-0.4-9-3.7-9C-5.9-9-8-7.4-8-4.5C-8-0.6-1.4,3.3,0,9C1.4,3.3,8-0.6,8-4.5C8-7.4,5.9-9,3.7-9z"/>
	</g>
	
		<radialGradient id="path3762-6-4_00000129173192033824982140000011943308606442571178_" cx="970.5808" cy="-11177.0254" r="81.9028" gradientTransform="matrix(0.3369 -0.2039 -0.1154 -0.2044 -1450.8717 -1768.5559)" gradientUnits="userSpaceOnUse">
		<stop  offset="0" style="stop-color:#FFFFFF;stop-opacity:0.313"/>
		<stop  offset="1" style="stop-color:#000000;stop-opacity:0"/>
	</radialGradient>
	
		<path id="path3762-6-4" inkscape:connector-curvature="0" sodipodi:nodetypes="cscsc" style="fill:url(#path3762-6-4_00000129173192033824982140000011943308606442571178_);" d="
		M93.4,478.2c0,0-12-145.9,33.9-188.8c51.6-48.2,207.8-17.6,207.8-17.6S229,310,186.7,346.5C146.3,381.4,93.4,478.2,93.4,478.2z"/>
	
		<radialGradient id="path3762-6-2-3_00000027597045246523410090000008736704302913847433_" cx="3427.5876" cy="-11372.4111" r="81.9028" gradientTransform="matrix(0.2937 -0.1249 -5.882351e-02 -0.2108 -1246.1187 -1669.6045)" gradientUnits="userSpaceOnUse">
		<stop  offset="0" style="stop-color:#FFFFFF;stop-opacity:0.2901"/>
		<stop  offset="1" style="stop-color:#000000;stop-opacity:0"/>
	</radialGradient>
	
		<path id="path3762-6-2-3" inkscape:connector-curvature="0" sodipodi:nodetypes="cscsc" style="fill:url(#path3762-6-2-3_00000027597045246523410090000008736704302913847433_);" d="
		M359.2,434.7c0,0,22-135.8,66.8-164.5c50.4-32.2,165.2,31.3,165.2,31.3s-85,30.6-125.6,54.3C426.8,378.4,359.2,434.7,359.2,434.7z"
		/>
</g>
<g id="layer1-9-6" transform="matrix(1.6743072,0,0,1.5669921,17.177511,46.385321)">
	<path id="hl-8" inkscape:connector-curvature="0" sodipodi:nodetypes="scsscss" class="st1" d="M3.7-9C0.4-9,0-5.5,0-5.5
		S-0.4-9-3.7-9C-5.9-9-8-7.4-8-4.5C-8-0.6-1.4,3.3,0,9C1.4,3.3,8-0.6,8-4.5C8-7.4,5.9-9,3.7-9z"/>
</g>
<text transform="matrix(-1 0 0 -1 161.0879 213.5156)" class="st1 st2 st3">A</text>
<g id="layer1-9-6-5" transform="matrix(-1.6743072,0,0,-1.5669921,150.15601,195.14313)">
	<path id="hl-8-1" inkscape:connector-curvature="0" sodipodi:nodetypes="scsscss" class="st1" d="M3.7-9C0.4-9,0-5.5,0-5.5
		S-0.4-9-3.7-9C-5.9-9-8-7.4-8-4.5C-8-0.6-1.4,3.3,0,9C1.4,3.3,8-0.6,8-4.5C8-7.4,5.9-9,3.7-9z"/>
</g>
</svg>
