<?xml version="1.0" encoding="utf-8"?>
<!-- Generator: Adobe Illustrator 26.3.1, SVG Export Plug-In . SVG Version: 6.00 Build 0)  -->
<svg version="1.1" id="Layer_1" xmlns="http://www.w3.org/2000/svg" xmlns:xlink="http://www.w3.org/1999/xlink" x="0px" y="0px"
	 viewBox="0 0 194 282.2" style="enable-background:new 0 0 194 282.2;" xml:space="preserve">
<style type="text/css">
	.st0{fill:#020101;}
	.st1{fill:#FFFFFF;}
</style>
<path class="st0" d="M194,10.1c0-5.6-4.3-10.1-9.7-10.1c0,0,0,0,0,0H9.7C4.3,0,0,4.5,0,10.1l0,0v262.1c0,5.6,4.3,10.1,9.7,10.1
	h174.6c5.4,0,9.7-4.5,9.7-10.1V10.1L194,10.1z"/>
<rect x="97" y="167.3" transform="matrix(0.5876 -0.8091 0.8091 0.5876 -80.4276 177.9923)" class="st1" width="74.8" height="1.1"/>
<path class="st1" d="M139.9,156.6l-0.9-0.7l13.3-18.3c-1-1.3-4-5.4-13.3-18.2l0.9-0.7l13.5,18.6l0.2,0.3l-0.2,0.3L139.9,156.6z"/>
<path class="st1" d="M130,180.7l-0.9-0.7l30.8-42.5c-1.1-1.4-4.4-6-15.3-21l-15.5-21.3l0.9-0.7l31,42.7l0.2,0.3L161,138L130,180.7z"
	/>
<path class="st1" d="M137.6,164.5l-4.1-5.6l15.4-21.3c-1.1-1.4-4.4-6-15.2-20.8l-0.2-0.3l3.4-4.7l-3-4.1L112,77.4l0.9-0.7l43.9,60.6
	l0.2,0.3L137.6,164.5z M134.9,158.9l2.7,3.7l18.1-24.9l-18.1-24.9l-2.7,3.7l15.1,20.9l0.2,0.3l-0.2,0.3L134.9,158.9z"/>
<rect x="59.1" y="130.5" transform="matrix(0.8096 -0.5869 0.5869 0.8096 -87.2042 66.9692)" class="st1" width="1.1" height="74.8"/>
<polygon class="st1" points="97,215.9 88.4,204.1 89.3,203.4 97,214 104.7,203.4 105.6,204.1 "/>
<polygon class="st1" points="97,226.2 87.9,213.6 88.8,213 97,224.3 105.2,213 106.1,213.6 "/>
<path class="st1" d="M54.1,156.6l-13.7-18.9l0.2-0.3l13.5-18.6l0.9,0.7c-9.3,12.8-12.2,16.9-13.3,18.2L55,155.9L54.1,156.6z"/>
<polygon class="st1" points="89.3,71.9 88.4,71.2 97,59.3 105.6,71.2 104.7,71.9 97,61.2 "/>
<path class="st1" d="M64,180.7l-31.2-43.1l0.2-0.3l31-42.7l0.9,0.7l-15.5,21.4c-10.8,15-14.2,19.6-15.3,21L64.9,180L64,180.7z"/>
<polygon class="st1" points="105.2,62.3 97,51 88.8,62.3 87.9,61.6 97,49.1 106.1,61.6 "/>
<path class="st1" d="M56.4,164.5L37,137.6l0.2-0.3l1.4-1.9l16.3-22.5l26.2-36.2l0.9,0.7l-22,30.3l-3,4.1l3.4,4.7l-0.2,0.3
	c-10.7,14.9-14,19.4-15.1,20.8l15.4,21.3L56.4,164.5z M38.4,137.6l18.1,24.9l2.7-3.7l-15.4-21.2l0.2-0.3l15.1-20.9l-2.7-3.7
	L38.4,137.6z"/>
<path class="st1" d="M187.2,77c-2.2-31.9-13.5-46.5-16.5-49.8c-3.3-3-17.9-14.3-49.8-16.5V9.6h51.8l-1.1,1c-0.6,0.6-1.1,1.2-1.6,1.9
	h7.9v-3h10.3v10.3h-2.9v7.9c0.7-0.5,1.3-1,1.9-1.6l1-1.1v51.8L187.2,77z M172.5,27.6c3.6,4.4,11.4,16.3,14.7,38.7V27.9
	c-0.6,0.5-1.1,0.9-1.8,1.3v14.6l-1.1,0.1c-1-5.5-5.7-12.5-5.7-12.6l-0.5-0.8l0.9-0.1c1.9-0.2,3.7-0.9,5.3-1.9v-8.7h-4.7l5.8-6.8v5.7
	h1.8v-8.1h-8.1v1.8h5.7l-6.8,5.8v-4.7h-8.7c-1,1.6-1.6,3.4-1.9,5.3l-0.1,0.9l-0.8-0.5c-0.1,0-7.1-4.7-12.6-5.7l0.1-1.1h14.6
	c0.4-0.6,0.8-1.2,1.3-1.8h-38.5c22.4,3.3,34.3,11.1,38.7,14.7l0.3,0.2c-0.8-3.5,0-7.8,1.6-9.4c0.6-0.7,1.6-0.8,2.4-0.4
	c0.8,0.4,1.5,1.1,1.7,2c0.1,1.2-0.2,2.4-0.9,3.4l-0.9-0.7c0.5-0.7,0.8-1.6,0.7-2.5c-0.2-0.6-0.6-1.1-1.1-1.3
	c-0.4-0.2-0.8-0.1-1.1,0.2c-1.4,1.4-2,5.8-1.1,9c3.2,0.9,7.7,0.3,9-1.1c0.3-0.3,0.4-0.7,0.2-1.1c-0.2-0.6-0.7-1-1.3-1.1
	c-0.9-0.1-1.8,0.2-2.5,0.7l-0.7-0.9c1-0.7,2.2-1,3.4-0.9c0.9,0.2,1.6,0.9,2,1.7c0.4,0.8,0.3,1.8-0.4,2.4c-1.5,1.5-5.8,2.3-9.4,1.6
	L172.5,27.6z M180,31.4c1.7,2.7,3.1,5.5,4.3,8.5v-10C183,30.6,181.5,31.1,180,31.4z M182,18.7h2.3v-2.6L182,18.7z M158,13.5
	c2.9,1.2,5.8,2.6,8.4,4.3c0.3-1.5,0.8-3,1.5-4.3H158L158,13.5z M179.1,13.5v2.3l2.6-2.3H179.1z"/>
<path class="st1" d="M73.2,272.7H21.3l1.1-1c0.6-0.6,1.1-1.2,1.6-1.9h-7.9v2.9H5.8v-10.3h2.9v-7.9c-0.7,0.5-1.3,1-1.9,1.6l-1,1.1
	v-51.8h1.1c2.2,31.9,13.5,46.5,16.5,49.8c3.3,3,17.9,14.3,49.8,16.5V272.7z M24.1,271.6h38.4c-22.4-3.3-34.3-11.1-38.7-14.7
	l-0.3-0.2c0.8,3.5,0,7.8-1.6,9.4c-0.6,0.7-1.6,0.8-2.4,0.4c-0.8-0.4-1.5-1.1-1.7-2c-0.1-1.2,0.2-2.4,0.9-3.4l0.9,0.7
	c-0.5,0.7-0.8,1.6-0.7,2.5c0.2,0.6,0.6,1.1,1.1,1.3c0.4,0.2,0.8,0.1,1.1-0.2c1.4-1.4,2-5.8,1.1-9c-3.2-0.9-7.7-0.3-9,1.1
	c-0.3,0.3-0.4,0.7-0.2,1.1c0.2,0.6,0.7,1,1.3,1.1c0.9,0.1,1.8-0.2,2.5-0.7l0.7,0.9c-1,0.7-2.2,1.1-3.4,0.9c-0.9-0.2-1.6-0.9-2-1.7
	c-0.4-0.8-0.3-1.8,0.4-2.4c1.5-1.6,5.8-2.3,9.4-1.6l-0.2-0.3C18.1,250.3,10.2,238.4,7,216v38.4c0.5-0.5,1.1-1,1.7-1.4v-14.5l1.1-0.1
	c1,5.5,5.7,12.5,5.7,12.6l0.5,0.8l-0.9,0.1c-1.9,0.2-3.7,0.9-5.3,1.9v8.7h4.7l-5.8,6.8v-5.7H6.9v8.1H15v-1.8H9.3l6.8-5.8v4.7h8.7
	c1-1.6,1.6-3.4,1.9-5.3l0.1-0.9l0.8,0.5c0.1,0,7.1,4.7,12.6,5.7l-0.1,1.1H25.4C25,270.4,24.6,271,24.1,271.6L24.1,271.6z
	 M26.1,268.7h10c-2.9-1.2-5.8-2.6-8.4-4.3C27.4,265.9,26.8,267.4,26.1,268.7L26.1,268.7z M12.4,268.7H15v-2.3L12.4,268.7z
	 M9.8,263.5v2.6l2.3-2.6H9.8L9.8,263.5z M9.8,242.4v10c1.3-0.7,2.8-1.3,4.3-1.5C12.4,248.2,10.9,245.4,9.8,242.4L9.8,242.4z"/>
<path class="st1" d="M6.9,77H5.8V25.1l1,1.1c0.6,0.6,1.2,1.1,1.9,1.6v-7.9H5.8V9.5h10.3v2.9H24c-0.5-0.7-1-1.3-1.6-1.9l-1.1-1h51.8
	v1.1c-31.9,2.2-46.5,13.6-49.8,16.5C20.4,30.5,9,45,6.9,77z M6.9,27.9v38.4C10.1,43.9,18,32,21.5,27.6l0.2-0.3
	c-3.5,0.8-7.8,0-9.3-1.6c-0.7-0.6-0.8-1.6-0.4-2.4c0.4-0.8,1.1-1.5,2-1.7c1.2-0.1,2.4,0.2,3.4,0.9l-0.7,0.9
	c-0.7-0.5-1.6-0.8-2.5-0.7c-0.6,0.2-1.1,0.6-1.3,1.1c-0.2,0.4-0.1,0.8,0.2,1.1c1.4,1.4,5.8,2,9,1.1c0.9-3.2,0.3-7.7-1.1-9
	c-0.3-0.3-0.7-0.4-1.1-0.2C19.4,17,19,17.4,18.9,18c-0.1,0.9,0.2,1.8,0.7,2.5l-0.9,0.7c-0.7-1-1-2.2-0.9-3.4c0.2-0.9,0.9-1.6,1.7-2
	c0.8-0.4,1.8-0.3,2.4,0.4c1.5,1.5,2.3,5.8,1.6,9.4l0.3-0.2c4.4-3.6,16.3-11.4,38.7-14.7H24.1c0.5,0.6,0.9,1.1,1.3,1.8H40l0.1,1.1
	c-5.5,1-12.5,5.7-12.6,5.7l-0.8,0.5l-0.1-0.9c-0.2-1.9-0.9-3.7-1.9-5.3h-8.7v4.7l-6.8-5.8H15v-1.8H6.9v8.1h1.8v-5.7l5.8,6.8H9.8v8.7
	c1.6,1,3.4,1.6,5.3,1.9l0.9,0.1l-0.5,0.8c0,0.1-4.7,7.1-5.7,12.6l-1.1-0.1V29.2C8,28.8,7.4,28.3,6.9,27.9L6.9,27.9z M9.8,29.9v10
	c1.2-2.9,2.6-5.8,4.3-8.5C12.6,31.1,11.1,30.6,9.8,29.9L9.8,29.9z M9.8,18.8H12l-2.3-2.6V18.8z M26.1,13.6c0.7,1.3,1.3,2.8,1.5,4.3
	c2.7-1.7,5.5-3.1,8.5-4.3H26.1L26.1,13.6z M12.3,13.6l2.6,2.3v-2.3L12.3,13.6L12.3,13.6z"/>
<path class="st1" d="M188.3,272.7H178v-2.9H170c0.5,0.7,1,1.3,1.6,1.9l1.1,1h-51.8v-1.1c31.9-2.2,46.5-13.5,49.8-16.5
	c3-3.3,14.3-17.9,16.5-49.8h1.1v51.8l-1-1.1c-0.6-0.6-1.2-1.1-1.9-1.6v7.9h2.9L188.3,272.7L188.3,272.7z M179.1,271.6h8.1v-8.1h-1.8
	v5.7l-5.8-6.8h4.7v-8.7c-1.6-1-3.4-1.6-5.3-1.9l-0.9-0.1l0.5-0.8c0-0.1,4.7-7.1,5.7-12.6l1.1,0.1V253c0.6,0.4,1.2,0.8,1.8,1.3v-38.4
	c-3.3,22.4-11.1,34.3-14.7,38.7l-0.2,0.3c3.5-0.8,7.8,0,9.3,1.6c0.7,0.6,0.8,1.6,0.4,2.4c-0.4,0.8-1.1,1.5-2,1.7
	c-1.2,0.2-2.4-0.2-3.4-0.9l0.7-0.9c0.7,0.5,1.6,0.8,2.5,0.7c0.6-0.2,1.1-0.6,1.3-1.1c0.2-0.4,0.1-0.8-0.2-1.1c-1.4-1.4-5.8-2-9-1.1
	c-0.9,3.2-0.3,7.7,1.1,9c0.3,0.3,0.7,0.4,1.1,0.2c0.6-0.2,1-0.7,1.1-1.3c0.1-0.9-0.2-1.8-0.7-2.5l0.9-0.7c0.7,1,1,2.2,0.9,3.4
	c-0.2,0.9-0.9,1.6-1.7,2c-0.8,0.4-1.8,0.3-2.4-0.4c-1.6-1.5-2.3-5.8-1.6-9.4l-0.3,0.2c-4.4,3.5-16.3,11.4-38.7,14.7H170
	c-0.5-0.6-0.9-1.1-1.3-1.8h-14.6l-0.1-1.1c5.5-1,12.5-5.7,12.6-5.7l0.8-0.5l0.1,0.9c0.2,1.9,0.8,3.7,1.8,5.4h8.7V264l6.8,5.8H179
	L179.1,271.6L179.1,271.6z M179.1,268.7h2.6l-2.6-2.3V268.7z M158,268.7h10c-0.7-1.3-1.3-2.8-1.5-4.3
	C163.8,266.1,161,267.5,158,268.7L158,268.7z M182,263.5l2.3,2.6v-2.6H182L182,263.5z M179.9,250.9c1.5,0.3,3,0.8,4.3,1.5v-10
	C183.1,245.3,181.7,248.2,179.9,250.9L179.9,250.9z"/>
<path class="st1" d="M187.2,77c-2.2-31.9-13.5-46.5-16.5-49.8c-3.3-3-17.9-14.3-49.8-16.5V9.6h51.8l-1.1,1c-0.6,0.6-1.1,1.2-1.6,1.9
	h7.9v-3h10.3v10.3h-2.9v7.9c0.7-0.5,1.3-1,1.9-1.6l1-1.1v51.8L187.2,77z M172.5,27.6c3.6,4.4,11.4,16.3,14.7,38.7V27.9
	c-0.6,0.5-1.1,0.9-1.8,1.3v14.6l-1.1,0.1c-1-5.5-5.7-12.5-5.7-12.6l-0.5-0.8l0.9-0.1c1.9-0.2,3.7-0.9,5.3-1.9v-8.7h-4.7l5.8-6.8v5.7
	h1.8v-8.1h-8.1v1.8h5.7l-6.8,5.8v-4.7h-8.7c-1,1.6-1.6,3.4-1.9,5.3l-0.1,0.9l-0.8-0.5c-0.1,0-7.1-4.7-12.6-5.7l0.1-1.1h14.6
	c0.4-0.6,0.8-1.2,1.3-1.8h-38.5c22.4,3.3,34.3,11.1,38.7,14.7l0.3,0.2c-0.8-3.5,0-7.8,1.6-9.4c0.6-0.7,1.6-0.8,2.4-0.4
	c0.8,0.4,1.5,1.1,1.7,2c0.1,1.2-0.2,2.4-0.9,3.4l-0.9-0.7c0.5-0.7,0.8-1.6,0.7-2.5c-0.2-0.6-0.6-1.1-1.1-1.3
	c-0.4-0.2-0.8-0.1-1.1,0.2c-1.4,1.4-2,5.8-1.1,9c3.2,0.9,7.7,0.3,9-1.1c0.3-0.3,0.4-0.7,0.2-1.1c-0.2-0.6-0.7-1-1.3-1.1
	c-0.9-0.1-1.8,0.2-2.5,0.7l-0.7-0.9c1-0.7,2.2-1,3.4-0.9c0.9,0.2,1.6,0.9,2,1.7c0.4,0.8,0.3,1.8-0.4,2.4c-1.5,1.5-5.8,2.3-9.4,1.6
	L172.5,27.6z M180,31.4c1.7,2.7,3.1,5.5,4.3,8.5v-10C183,30.6,181.5,31.1,180,31.4z M182,18.7h2.3v-2.6L182,18.7z M158,13.5
	c2.9,1.2,5.8,2.6,8.4,4.3c0.3-1.5,0.8-3,1.5-4.3H158L158,13.5z M179.1,13.5v2.3l2.6-2.3H179.1z"/>
<path class="st1" d="M73.2,272.7H21.3l1.1-1c0.6-0.6,1.1-1.2,1.6-1.9h-7.9v2.9H5.8v-10.3h2.9v-7.9c-0.7,0.5-1.3,1-1.9,1.6l-1,1.1
	v-51.8h1.1c2.2,31.9,13.5,46.5,16.5,49.8c3.3,3,17.9,14.3,49.8,16.5V272.7z M24.1,271.6h38.4c-22.4-3.3-34.3-11.1-38.7-14.7
	l-0.3-0.2c0.8,3.5,0,7.8-1.6,9.4c-0.6,0.7-1.6,0.8-2.4,0.4c-0.8-0.4-1.5-1.1-1.7-2c-0.1-1.2,0.2-2.4,0.9-3.4l0.9,0.7
	c-0.5,0.7-0.8,1.6-0.7,2.5c0.2,0.6,0.6,1.1,1.1,1.3c0.4,0.2,0.8,0.1,1.1-0.2c1.4-1.4,2-5.8,1.1-9c-3.2-0.9-7.7-0.3-9,1.1
	c-0.3,0.3-0.4,0.7-0.2,1.1c0.2,0.6,0.7,1,1.3,1.1c0.9,0.1,1.8-0.2,2.5-0.7l0.7,0.9c-1,0.7-2.2,1.1-3.4,0.9c-0.9-0.2-1.6-0.9-2-1.7
	c-0.4-0.8-0.3-1.8,0.4-2.4c1.5-1.6,5.8-2.3,9.4-1.6l-0.2-0.3C18.1,250.3,10.2,238.4,7,216v38.4c0.5-0.5,1.1-1,1.7-1.4v-14.5l1.1-0.1
	c1,5.5,5.7,12.5,5.7,12.6l0.5,0.8l-0.9,0.1c-1.9,0.2-3.7,0.9-5.3,1.9v8.7h4.7l-5.8,6.8v-5.7H6.9v8.1H15v-1.8H9.3l6.8-5.8v4.7h8.7
	c1-1.6,1.6-3.4,1.9-5.3l0.1-0.9l0.8,0.5c0.1,0,7.1,4.7,12.6,5.7l-0.1,1.1H25.4C25,270.4,24.6,271,24.1,271.6L24.1,271.6z
	 M26.1,268.7h10c-2.9-1.2-5.8-2.6-8.4-4.3C27.4,265.9,26.8,267.4,26.1,268.7L26.1,268.7z M12.4,268.7H15v-2.3L12.4,268.7z
	 M9.8,263.5v2.6l2.3-2.6H9.8L9.8,263.5z M9.8,242.4v10c1.3-0.7,2.8-1.3,4.3-1.5C12.4,248.2,10.9,245.4,9.8,242.4L9.8,242.4z"/>
<path class="st1" d="M6.9,77H5.8V25.1l1,1.1c0.6,0.6,1.2,1.1,1.9,1.6v-7.9H5.8V9.5h10.3v2.9H24c-0.5-0.7-1-1.3-1.6-1.9l-1.1-1h51.8
	v1.1c-31.9,2.2-46.5,13.6-49.8,16.5C20.4,30.5,9,45,6.9,77z M6.9,27.9v38.4C10.1,43.9,18,32,21.5,27.6l0.2-0.3
	c-3.5,0.8-7.8,0-9.3-1.6c-0.7-0.6-0.8-1.6-0.4-2.4c0.4-0.8,1.1-1.5,2-1.7c1.2-0.1,2.4,0.2,3.4,0.9l-0.7,0.9
	c-0.7-0.5-1.6-0.8-2.5-0.7c-0.6,0.2-1.1,0.6-1.3,1.1c-0.2,0.4-0.1,0.8,0.2,1.1c1.4,1.4,5.8,2,9,1.1c0.9-3.2,0.3-7.7-1.1-9
	c-0.3-0.3-0.7-0.4-1.1-0.2C19.4,17,19,17.4,18.9,18c-0.1,0.9,0.2,1.8,0.7,2.5l-0.9,0.7c-0.7-1-1-2.2-0.9-3.4c0.2-0.9,0.9-1.6,1.7-2
	c0.8-0.4,1.8-0.3,2.4,0.4c1.5,1.5,2.3,5.8,1.6,9.4l0.3-0.2c4.4-3.6,16.3-11.4,38.7-14.7H24.1c0.5,0.6,0.9,1.1,1.3,1.8H40l0.1,1.1
	c-5.5,1-12.5,5.7-12.6,5.7l-0.8,0.5l-0.1-0.9c-0.2-1.9-0.9-3.7-1.9-5.3h-8.7v4.7l-6.8-5.8H15v-1.8H6.9v8.1h1.8v-5.7l5.8,6.8H9.8v8.7
	c1.6,1,3.4,1.6,5.3,1.9l0.9,0.1l-0.5,0.8c0,0.1-4.7,7.1-5.7,12.6l-1.1-0.1V29.2C8,28.8,7.4,28.3,6.9,27.9L6.9,27.9z M9.8,29.9v10
	c1.2-2.9,2.6-5.8,4.3-8.5C12.6,31.1,11.1,30.6,9.8,29.9L9.8,29.9z M9.8,18.8H12l-2.3-2.6V18.8z M26.1,13.6c0.7,1.3,1.3,2.8,1.5,4.3
	c2.7-1.7,5.5-3.1,8.5-4.3H26.1L26.1,13.6z M12.3,13.6l2.6,2.3v-2.3L12.3,13.6L12.3,13.6z"/>
<path class="st1" d="M188.3,272.7H178v-2.9H170c0.5,0.7,1,1.3,1.6,1.9l1.1,1h-51.8v-1.1c31.9-2.2,46.5-13.5,49.8-16.5
	c3-3.3,14.3-17.9,16.5-49.8h1.1v51.8l-1-1.1c-0.6-0.6-1.2-1.1-1.9-1.6v7.9h2.9L188.3,272.7L188.3,272.7z M179.1,271.6h8.1v-8.1h-1.8
	v5.7l-5.8-6.8h4.7v-8.7c-1.6-1-3.4-1.6-5.3-1.9l-0.9-0.1l0.5-0.8c0-0.1,4.7-7.1,5.7-12.6l1.1,0.1V253c0.6,0.4,1.2,0.8,1.8,1.3v-38.4
	c-3.3,22.4-11.1,34.3-14.7,38.7l-0.2,0.3c3.5-0.8,7.8,0,9.3,1.6c0.7,0.6,0.8,1.6,0.4,2.4c-0.4,0.8-1.1,1.5-2,1.7
	c-1.2,0.2-2.4-0.2-3.4-0.9l0.7-0.9c0.7,0.5,1.6,0.8,2.5,0.7c0.6-0.2,1.1-0.6,1.3-1.1c0.2-0.4,0.1-0.8-0.2-1.1c-1.4-1.4-5.8-2-9-1.1
	c-0.9,3.2-0.3,7.7,1.1,9c0.3,0.3,0.7,0.4,1.1,0.2c0.6-0.2,1-0.7,1.1-1.3c0.1-0.9-0.2-1.8-0.7-2.5l0.9-0.7c0.7,1,1,2.2,0.9,3.4
	c-0.2,0.9-0.9,1.6-1.7,2c-0.8,0.4-1.8,0.3-2.4-0.4c-1.6-1.5-2.3-5.8-1.6-9.4l-0.3,0.2c-4.4,3.5-16.3,11.4-38.7,14.7H170
	c-0.5-0.6-0.9-1.1-1.3-1.8h-14.6l-0.1-1.1c5.5-1,12.5-5.7,12.6-5.7l0.8-0.5l0.1,0.9c0.2,1.9,0.8,3.7,1.8,5.4h8.7V264l6.8,5.8H179
	L179.1,271.6L179.1,271.6z M179.1,268.7h2.6l-2.6-2.3V268.7z M158,268.7h10c-0.7-1.3-1.3-2.8-1.5-4.3
	C163.8,266.1,161,267.5,158,268.7L158,268.7z M182,263.5l2.3,2.6v-2.6H182L182,263.5z M179.9,250.9c1.5,0.3,3,0.8,4.3,1.5v-10
	C183.1,245.3,181.7,248.2,179.9,250.9L179.9,250.9z"/>
<path class="st1" d="M97,170.2l-26.1-32.5L97,105.1l26.1,32.6L97,170.2z M72.4,137.6L97,168.4l24.7-30.8L97,106.9L72.4,137.6z"/>
<rect x="5.8" y="76.9" class="st1" width="1.1" height="128.4"/>
<rect x="187.2" y="76.9" class="st1" width="1.1" height="128.4"/>
</svg>
